# xmcd
#
# Track frame offsets:
#	150
#	14070
#	30299
#	44089
#	62501
#	76560
#	89865
#	103055
#	115306
#	127549
#	139446
#	153214
#	167339
#	181192
#	193561
#	207341
#
# Disc length: 2968 seconds
#
# Revision: 1
# Processed by: cddbd v1.5.2PL0 Copyright (c) Steve Scherf et al.
# Submitted via: EZCDAudioConverter 3.1.5.1
#
DISCID=cd0b9610
DTITLE=Various Artist - Best Of Blues 4
DYEAR=2012
DGENRE=Blues
TTITLE0=Buddy Guy - This Is The End
TTITLE1=Leroy Car And Scrapper Blackwell - Blues Before Sunrise
TTITLE2=James Cotton - Cotton Crop Blues
TTITLE3=Tommy Tucker - High Heal Sneakers
TTITLE4=Jimmy Reed - You Don't Have To Go
TTITLE5=Chuck Willis - I Feel So Bad
TTITLE6=Buddy Johnson And Ella Fitzgerald - I'm Just Your Fool
TTITLE7=Elmore James - Make My Dreams Come True
TTITLE8=Little Walter - My Babe
TTITLE9=Zilla Mays And The Blues Caravan - Nightshift Blues
TTITLE10=Lonnie Johnson - Rocks In My Bed
TTITLE11=Mississippi Sheiks - Sittin On Top Of The World
TTITLE12=BB King - You Upset Me Baby
TTITLE13=Smiley Lewis - Blue Monday
TTITLE14=Lightnin Hopkins - Katie Mae
TTITLE15=Muddy Waters - They Call Me Muddy Waters
EXTD=
EXTT0=
EXTT1=
EXTT2=
EXTT3=
EXTT4=
EXTT5=
EXTT6=
EXTT7=
EXTT8=
EXTT9=
EXTT10=
EXTT11=
EXTT12=
EXTT13=
EXTT14=
EXTT15=
PLAYORDER=
